PathFileType	4	(X/Y/Z)	/Users/itak/Documents/Research/Walk-IL/dataset/trc/00484_00167.trc
DataRate	CameraRate	NumFrames	NumMarkers	Units	OrigDataRate	OrigDataStartFrame	OrigNumFrames
100.000000	100.000000	4	53	mm	100.000000	303	606
Frame#	Time	RPSI			LPSI			L3			STRN			T10			C7			CLAV			RBAK			LBAK			LSHO			LUPA			LAEL			LAOL			LWTS			LWPS			LFRA			LIFD			LHPS			LHTS			RSHO			RUPA			RAEL			RAOL			RWTS			RWPS			RFRA			RIFD			RHTS			RHPS			RBHD			LFHD			RFHD			LBHD			LHIP			RHIP			RASI			LASI			LKNE			LTHI			LANK			LTIP			LTOE			LMT1			LMT5			LHEE			RKNE			RTHI			RANK			RTIP			RTOE			RMT1			RMT5			RHEE			
		X1	Y1	Z1	X2	Y2	Z2	X3	Y3	Z3	X4	Y4	Z4	X5	Y5	Z5	X6	Y6	Z6	X7	Y7	Z7	X8	Y8	Z8	X9	Y9	Z9	X10	Y10	Z10	X11	Y11	Z11	X12	Y12	Z12	X13	Y13	Z13	X14	Y14	Z14	X15	Y15	Z15	X16	Y16	Z16	X17	Y17	Z17	X18	Y18	Z18	X19	Y19	Z19	X20	Y20	Z20	X21	Y21	Z21	X22	Y22	Z22	X23	Y23	Z23	X24	Y24	Z24	X25	Y25	Z25	X26	Y26	Z26	X27	Y27	Z27	X28	Y28	Z28	X29	Y29	Z29	X30	Y30	Z30	X31	Y31	Z31	X32	Y32	Z32	X33	Y33	Z33	X34	Y34	Z34	X35	Y35	Z35	X36	Y36	Z36	X37	Y37	Z37	X38	Y38	Z38	X39	Y39	Z39	X40	Y40	Z40	X41	Y41	Z41	X42	Y42	Z42	X43	Y43	Z43	X44	Y44	Z44	X45	Y45	Z45	X46	Y46	Z46	X47	Y47	Z47	X48	Y48	Z48	X49	Y49	Z49	X50	Y50	Z50	X51	Y51	Z51	X52	Y52	Z52	X53	Y53	Z53	

304	3.03	470.723388671875	995.773193359375	-206.7331085205078	374.9276428222656	974.1572265625	-102.3547973632812	399.8570556640625	1086.531127929688	-188.0574798583984	162.5233612060547	1216.57080078125	-388.4996948242188	383.0663452148438	1206.701538085938	-189.0948028564453	303.7102966308594	1454.263305664062	-280.8103942871094	170.3278045654297	1335.054443359375	-379.9707946777344	423.1392517089844	1347.959716796875	-295.7135620117188	265.6999816894531	1416.01025390625	-175.9972229003906	137.479248046875	1424.516357421875	-193.7584075927734	67.62727355957031	1309.424682617188	-122.552864074707	21.4192008972168	1091.443237304688	-164.6190032958984	103.970344543457	1068.283081054688	-108.0414581298828	75.43714904785156	956.9179077148438	-333.251220703125	36.74828338623047	907.7924194335938	-291.0804748535156	19.24026489257812	1018.52490234375	-220.1633148193359	101.6292953491211	820.4365844726562	-413.0987548828125	54.73171997070312	842.19091796875	-334.4227294921875	80.67760467529297	887.695068359375	-384.9002990722656	358.6749572753906	1413.233276367188	-440.6914978027344	433.4052124023438	1369.57763671875	-477.2522888183594	576.0516357421875	1122.776489257812	-495.7025756835938	589.9768676757812	1115.4716796875	-429.6753234863281	558.27587890625	890.9700317382812	-518.6383666992188	643.8757934570312	911.3087768554688	-512.9850463867188	602.4968872070312	1070.117797851562	-501.3141479492188	623.3539428710938	748.4318237304688	-508.1200866699219	593.1634521484375	799.5305786132812	-525.7297973632812	665.5404052734375	826.4909057617188	-513.49609375	236.6982421875	1640.569702148438	-430.7590637207031	57.62652587890625	1619.471923828125	-330.5907592773438	101.2355041503906	1630.88232421875	-453.2686462402344	192.2444152832031	1632.37109375	-258.9035949707031	219.9752349853516	831.462646484375	-117.2776947021484	505.4759521484375	906.521240234375	-392.8739929199219	377.8249206542969	913.6139526367188	-413.9383239746094	198.2554168701172	871.1627807617188	-239.2874298095703	280.6035766601562	427.7621765136719	-235.7803649902344	232.3313903808594	567.177001953125	-198.6141662597656	403.0857849121094	28.30061531066895	-201.5502624511719	309.6883544921875	274.627197265625	-234.4269866943359	374.4548645019531	57.90926742553711	-438.3936157226562	424.0322570800781	71.12686157226562	-375.6380004882812	327.2019958496094	39.56160354614258	-331.3543395996094	480.1075744628906	37.66558837890625	-187.374267578125	587.9163818359375	547.88818359375	-465.1489562988281	514.7489624023438	785.8623046875	-452.8795471191406	925.1731567382812	302.712646484375	-342.584228515625	694.6536865234375	455.0530700683594	-448.7091979980469	843.4628295898438	130.4944000244141	-446.5255737304688	831.5786743164062	164.0375823974609	-382.2357482910156	904.323486328125	216.6263275146484	-440.4087829589844	921.3895874023438	326.5839538574219	-269.14794921875	
305	3.04	477.209228515625	995.563720703125	-215.2194366455078	386.4305725097656	975.798583984375	-105.9331283569336	406.7954406738281	1086.563598632812	-193.1214141845703	161.0748596191406	1215.3525390625	-384.11865234375	389.547607421875	1206.65625	-193.6192016601562	306.6257934570312	1453.938842773438	-283.3828125	169.5649261474609	1333.921264648438	-376.9950866699219	425.53857421875	1347.195922851562	-301.652587890625	272.572509765625	1416.263671875	-176.9305267333984	143.7829284667969	1424.515014648438	-189.9403076171875	76.27480316162109	1309.927124023438	-115.435188293457	25.77951812744141	1092.86572265625	-155.0676574707031	110.0016937255859	1068.558227539062	-101.3059692382812	72.75749206542969	959.1373291015625	-325.8582763671875	35.33994674682617	909.740966796875	-283.0359497070312	21.09590721130371	1020.242248535156	-210.7677612304688	94.91306304931641	824.1806640625	-408.7398681640625	50.94721221923828	844.6722412109375	-327.9947204589844	75.33425140380859	890.9404296875	-378.7027893066406	356.1133422851562	1411.564575195312	-444.7601013183594	429.759765625	1367.468872070312	-483.2268981933594	572.4534301757812	1121.139282226562	-503.0694580078125	588.1949462890625	1114.362670898438	-437.3645324707031	554.7969970703125	889.5931396484375	-524.0242919921875	640.4883422851562	910.1173095703125	-520.8385620117188	598.9517211914062	1068.5146484375	-509.0002746582031	620.5445556640625	747.1759033203125	-516.7401123046875	589.6176147460938	798.4032592773438	-532.998291015625	662.4436645507812	825.5325927734375	-522.7952270507812	235.3081207275391	1639.950073242188	-431.2926635742188	58.88889312744141	1619.180297851562	-326.1773986816406	99.26972198486328	1630.223510742188	-450.0791320800781	195.4259948730469	1632.310668945312	-258.2513122558594	230.2485961914062	833.1737670898438	-111.9133529663086	501.6567077636719	904.1492919921875	-402.4283142089844	373.2338562011719	911.625	-416.4305419921875	202.8898010253906	871.8447875976562	-232.8447418212891	284.7159729003906	428.463134765625	-230.6700744628906	237.8639068603516	568.582275390625	-193.4076538085938	406.8684997558594	29.26871490478516	-198.2577362060547	313.0779418945312	275.2803649902344	-229.7519226074219	358.8877868652344	53.92241668701172	-432.1220092773438	413.7224426269531	68.45882415771484	-374.2771606445312	320.7596435546875	41.01025390625	-320.3535461425781	484.6872863769531	37.15047454833984	-190.0182342529297	577.9552612304688	544.4301147460938	-474.9699401855469	507.1757507324219	782.7354736328125	-461.3233642578125	918.7698364257812	298.0579528808594	-367.8018493652344	684.8831787109375	451.1390075683594	-463.1866760253906	829.6353149414062	127.4884185791016	-468.1763305664062	822.1478881835938	160.2121734619141	-402.8489685058594	891.619140625	212.8242034912109	-464.7223205566406	919.4428100585938	321.5435180664062	-294.1133422851562	
306	3.05	483.1123046875	995.5187377929688	-223.6560821533203	397.5279541015625	977.398681640625	-109.9098205566406	413.4400634765625	1086.902465820312	-198.3191070556641	159.8486633300781	1214.47119140625	-379.7584533691406	395.8555908203125	1206.93212890625	-198.3392791748047	309.3959655761719	1453.750854492188	-285.9917907714844	169.0078887939453	1333.1083984375	-374.0293884277344	427.6900329589844	1346.692749023438	-307.6158142089844	279.2367858886719	1416.725341796875	-178.0745849609375	150.0590972900391	1424.63232421875	-186.4976501464844	85.05702972412109	1310.4931640625	-108.9891662597656	30.68752861022949	1094.38427734375	-145.9498443603516	116.5227661132812	1068.98486328125	-95.12477111816406	70.14550018310547	960.9361572265625	-318.3030395507812	34.05855941772461	911.4981079101562	-274.6213989257812	23.34232139587402	1021.937683105469	-201.48876953125	87.43710327148438	827.0405883789062	-403.3375854492188	46.82294464111328	846.8504028320312	-320.7435302734375	69.72386932373047	893.50244140625	-371.8763732910156	353.4394836425781	1410.1435546875	-448.7002563476562	425.9393920898438	1365.559448242188	-489.0131225585938	568.37060546875	1119.494506835938	-510.1576843261719	585.7066650390625	1113.162353515625	-444.7712097167969	550.9440307617188	888.1677856445312	-529.3665161132812	636.6524658203125	908.9457397460938	-528.3228759765625	594.9146118164062	1066.89453125	-516.3701782226562	617.3505249023438	745.9620971679688	-525.5279541015625	585.73974609375	797.2742309570312	-540.39208984375	658.9027099609375	824.6458740234375	-531.8745727539062	233.8686828613281	1639.30859375	-431.815185546875	60.05393981933594	1618.803588867188	-321.9851379394531	97.38337707519531	1629.482788085938	-447.0361633300781	198.3672943115234	1632.25048828125	-257.7663879394531	240.519775390625	834.9637451171875	-107.2711334228516	497.4713745117188	902.0436401367188	-411.412353515625	368.7220458984375	910.0797119140625	-418.6103210449219	207.8632354736328	872.8375244140625	-226.8414154052734	288.26416015625	429.0843505859375	-226.0113067626953	242.8763427734375	570.1907958984375	-189.0328521728516	410.6802978515625	30.19153594970703	-195.2182006835938	316.0384216308594	275.7689208984375	-225.0899505615234	344.2374572753906	50.05544662475586	-425.12890625	403.793212890625	65.58955383300781	-372.3268127441406	315.0918273925781	42.2620849609375	-309.522216796875	488.9328308105469	36.91656112670898	-192.8686828613281	567.3961181640625	541.0916748046875	-484.0552673339844	499.2784118652344	779.8138427734375	-468.9625549316406	910.6148681640625	292.6824340820312	-392.244140625	674.2058715820312	447.0704040527344	-476.8560791015625	813.8978271484375	124.1130523681641	-488.7179565429688	810.9588012695312	155.9807281494141	-422.6487731933594	877.1012573242188	208.4788665771484	-487.9537658691406	915.747802734375	315.7384033203125	-318.5133361816406	
307	3.06	488.3808288574219	995.5776977539062	-231.9563446044922	408.1281127929688	978.8136596679688	-114.1830291748047	419.7122802734375	1087.470703125	-203.6102905273438	158.877197265625	1213.933959960938	-375.413818359375	401.9481506347656	1207.455078125	-203.1965179443359	312.0678100585938	1453.670288085938	-288.5941162109375	168.6751556396484	1332.614990234375	-371.0592346191406	429.5939636230469	1346.38720703125	-313.5815124511719	285.7110290527344	1417.36474609375	-179.3916320800781	156.3133087158203	1424.897705078125	-183.4197235107422	93.90496826171875	1311.187622070312	-103.1920013427734	36.16143035888672	1096.003540039062	-137.2445220947266	123.5718307495117	1069.600708007812	-89.52976226806641	67.62283325195312	962.3450317382812	-310.5903015136719	32.90886688232422	913.110107421875	-265.7938232421875	26.00864028930664	1023.62109375	-192.3065948486328	79.29756927490234	829.0238647460938	-396.8204345703125	42.46443939208984	848.751953125	-312.6059875488281	63.90536880493164	895.4071655273438	-364.38525390625	350.6775207519531	1408.969116210938	-452.4808044433594	421.9524230957031	1363.876098632812	-494.6014404296875	563.8245849609375	1117.85546875	-517.0079345703125	582.5577392578125	1111.88671875	-451.9245300292969	546.69677734375	886.6721801757812	-534.7027587890625	632.37060546875	907.7723388671875	-535.4608154296875	590.4051513671875	1065.269897460938	-523.4664306640625	613.7677001953125	744.7763061523438	-534.3294677734375	581.5113525390625	796.10400390625	-547.8247680664062	654.9119262695312	823.7977905273438	-540.6514282226562	232.4077606201172	1638.631713867188	-432.3145141601562	61.16144561767578	1618.324096679688	-318.0213928222656	95.60050964355469	1628.639404296875	-444.1336669921875	201.1006011962891	1632.177612304688	-257.4238891601562	250.7087707519531	836.7116088867188	-103.3106079101562	493.0142211914062	900.2095336914062	-419.75341796875	364.2975158691406	908.9798583984375	-420.5533752441406	212.9798431396484	874.020263671875	-221.2239074707031	291.2501220703125	429.6230773925781	-221.7458038330078	247.4673004150391	571.822021484375	-185.1080017089844	414.3366394042969	31.02948188781738	-192.6439361572266	318.5467224121094	276.0967712402344	-220.5771789550781	331.3118591308594	46.66194152832031	-418.0986328125	394.8171691894531	62.6966438293457	-370.0775451660156	310.3753051757812	43.22193145751953	-299.5538635253906	492.7180786132812	36.92074203491211	-195.8026275634766	556.3321533203125	537.8921508789062	-492.4173278808594	491.1119079589844	777.1373291015625	-475.8511657714844	900.7963256835938	286.53955078125	-415.8244323730469	662.665771484375	442.8257751464844	-489.6737976074219	796.3853149414062	120.3300552368164	-508.0055236816406	798.0572509765625	151.3545837402344	-441.5320434570312	860.94580078125	203.5079040527344	-509.9855346679688	910.3207397460938	309.1711730957031	-342.2761535644531	
